<svg width="123" height="96" viewBox="0 0 123 96" fill="none" xmlns="http://www.w3.org/2000/svg">
<g clip-path="url(#clip0_53_324)">
<path d="M12.81 22.46H38.34L59.46 1.17998C59.8315 0.808077 60.2726 0.513041 60.7582 0.311744C61.2438 0.110447 61.7643 0.00683594 62.29 0.00683594C62.8157 0.00683594 63.3362 0.110447 63.8218 0.311744C64.3074 0.513041 64.7485 0.808077 65.12 1.17998C65.4978 1.54584 65.7979 1.98416 66.0024 2.4687C66.2069 2.95325 66.3115 3.47406 66.31 3.99998V92C66.3211 92.8045 66.0894 93.5937 65.645 94.2645C65.2006 94.9353 64.5643 95.4565 63.8191 95.76C63.0739 96.0635 62.2544 96.1351 61.4679 95.9657C60.6813 95.7962 59.9641 95.3934 59.41 94.81L38.54 77.81H12.81C9.41501 77.8021 6.16134 76.4499 3.76071 74.0493C1.36009 71.6486 0.00792299 68.395 0 65L0 35.27C0.00792299 31.875 1.36009 28.6213 3.76071 26.2207C6.16134 23.8201 9.41501 22.4679 12.81 22.46V22.46ZM113.43 30.55C113.94 30.0305 114.549 29.6179 115.22 29.3363C115.891 29.0546 116.612 28.9096 117.34 28.9096C118.068 28.9096 118.789 29.0546 119.46 29.3363C120.131 29.6179 120.74 30.0305 121.25 30.55C122.286 31.6015 122.867 33.0186 122.867 34.495C122.867 35.9714 122.286 37.3885 121.25 38.44L111.83 48L121.28 57.59C122.308 58.6413 122.879 60.0567 122.868 61.5273C122.857 62.998 122.264 64.4045 121.22 65.44C120.71 65.9537 120.103 66.3614 119.434 66.6396C118.766 66.9178 118.049 67.061 117.325 67.061C116.601 67.061 115.884 66.9178 115.216 66.6396C114.547 66.3614 113.94 65.9537 113.43 65.44L104 55.9L94.6 65.45C94.0885 65.967 93.4796 66.3774 92.8084 66.6576C92.1373 66.9377 91.4173 67.0819 90.69 67.0819C89.9627 67.0819 89.2427 66.9377 88.5715 66.6576C87.9004 66.3774 87.2915 65.967 86.78 65.45C85.743 64.3968 85.1618 62.978 85.1618 61.5C85.1618 60.0219 85.743 58.6032 86.78 57.55L96.23 48L86.78 38.4C85.7523 37.3503 85.1817 35.9366 85.1929 34.4676C85.2042 32.9986 85.7963 31.5938 86.84 30.56C87.3489 30.0439 87.9553 29.634 88.624 29.3543C89.2926 29.0746 90.0102 28.9305 90.735 28.9305C91.4598 28.9305 92.1774 29.0746 92.846 29.3543C93.5147 29.634 94.1211 30.0439 94.63 30.56L104.03 40.08L113.43 30.54V30.55Z" fill="white"/>
</g>
<defs>
<clipPath id="clip0_53_324">
<rect width="122.88" height="96" fill="white"/>
</clipPath>
</defs>
</svg>
