<svg width="448" height="512" viewBox="0 0 448 512" fill="none" xmlns="http://www.w3.org/2000/svg">
<g clip-path="url(#clip0_50_318)">
<path d="M135.2 17.7L128 32H32C14.3 32 0 46.3 0 64C0 81.7 14.3 96 32 96H416C433.7 96 448 81.7 448 64C448 46.3 433.7 32 416 32H320L312.8 17.7C307.4 6.8 296.3 0 284.2 0H163.8C151.7 0 140.6 6.8 135.2 17.7V17.7ZM416 128H32L53.2 467C54.8 492.3 75.8 512 101.1 512H346.9C372.2 512 393.2 492.3 394.8 467L416 128Z" fill="#FF0000"/>
</g>
<defs>
<clipPath id="clip0_50_318">
<rect width="448" height="512" fill="white"/>
</clipPath>
</defs>
</svg>
