<svg width="448" height="512" viewBox="0 0 448 512" fill="none" xmlns="http://www.w3.org/2000/svg">
<path d="M272 304H176C78.8 304 0 382.8 0 480C0 497.67 14.33 512 32 512H416C433.67 512 448 497.67 448 480C448 382.8 369.2 304 272 304ZM48.99 464C56.89 400.9 110.8 352 176 352H272C337.16 352 391.1 400.95 399 464H48.99ZM224 256C294.69 256 352 198.69 352 128C352 57.31 294.69 0 224 0C153.31 0 96 57.31 96 128C96 198.7 153.3 256 224 256ZM224 48C268.11 48 304 83.89 304 128C304 172.11 268.11 208 224 208C179.89 208 144 172.1 144 128C144 83.89 179.9 48 224 48Z" fill="white"/>
</svg>
